<?xml version="1.0" standalone="no"?>
<!DOCTYPE svg PUBLIC "-//W3C//DTD SVG 20010904//EN"
 "http://www.w3.org/TR/2001/REC-SVG-20010904/DTD/svg10.dtd">
<svg version="1.0" xmlns="http://www.w3.org/2000/svg"
 width="1234.000000pt" height="1234.000000pt" viewBox="0 0 1234.000000 1234.000000"
 preserveAspectRatio="xMidYMid meet">
<metadata>
Created by potrace 1.14, written by Peter Selinger 2001-2017
</metadata>
<g transform="translate(0.000000,1234.000000) scale(0.100000,-0.100000)"
fill="#000000" stroke="none">
<path d="M2728 9635 c-2 -2 -41 -6 -88 -9 -47 -3 -96 -8 -110 -10 -14 -3 -41
-7 -60 -10 -49 -8 -97 -18 -152 -32 -13 -3 -30 -7 -38 -9 -8 -2 -15 -4 -15 -5
0 -1 -7 -3 -16 -5 -54 -10 -181 -57 -285 -105 -72 -33 -245 -133 -277 -160 -6
-6 -30 -24 -52 -41 -69 -52 -175 -161 -219 -224 -66 -94 -91 -157 -95 -233 -7
-143 78 -243 319 -374 136 -73 333 -169 380 -183 14 -4 30 -11 35 -15 8 -5 99
-42 115 -46 5 -1 25 -9 80 -31 19 -8 46 -19 60 -23 14 -5 84 -29 155 -55 72
-25 162 -57 200 -70 39 -13 126 -45 195 -70 69 -25 130 -47 135 -48 6 -2 15
-5 20 -9 11 -7 167 -72 175 -73 7 -1 242 -114 260 -125 8 -5 50 -27 92 -50 93
-48 337 -190 467 -271 51 -33 96 -59 100 -59 5 0 16 -9 25 -19 17 -19 17 -20
-6 -32 -27 -14 -311 -219 -318 -230 -3 -4 -21 -20 -41 -36 -20 -16 -71 -60
-114 -99 -509 -459 -902 -1057 -1111 -1689 -38 -116 -58 -184 -70 -237 -2 -10
-6 -27 -9 -38 -18 -74 -35 -149 -41 -186 -3 -20 -8 -46 -10 -58 -2 -11 -7 -41
-10 -66 -3 -25 -7 -56 -10 -70 -24 -148 -24 -560 1 -695 6 -32 35 -170 40
-195 58 -254 187 -500 337 -646 167 -162 421 -279 693 -320 11 -1 36 -5 56 -9
197 -33 650 -38 1044 -10 22 2 87 6 145 9 58 4 128 8 155 11 28 2 93 7 145 10
52 4 120 8 150 10 635 46 1091 51 1655 20 84 -4 257 -15 310 -20 28 -2 91 -6
140 -10 50 -3 115 -8 145 -10 30 -2 102 -7 160 -11 58 -3 125 -8 150 -9 309
-23 775 -23 955 -1 17 3 53 7 80 10 28 3 61 8 75 11 14 4 36 8 50 11 46 9 155
35 170 41 8 3 20 7 25 8 32 7 159 63 215 95 173 97 297 221 404 403 25 43 46
84 46 91 0 7 5 17 10 22 24 24 104 293 126 423 3 18 8 43 10 55 26 128 26 604
-1 744 -1 9 -6 37 -9 62 -3 25 -8 56 -11 70 -3 14 -9 48 -15 75 -5 28 -12 60
-15 73 -3 12 -7 31 -10 43 -2 11 -7 29 -10 39 -3 10 -8 27 -10 38 -8 44 -70
244 -85 277 -5 11 -16 40 -24 65 -47 145 -197 457 -306 640 -35 58 -66 107
-70 110 -4 3 -13 16 -20 30 -12 23 -140 205 -173 247 -9 10 -37 45 -63 78 -63
80 -262 301 -310 345 -21 19 -72 66 -114 104 -110 101 -249 211 -387 309
l-123 85 184 114 c178 109 336 202 346 203 3 0 25 12 50 27 25 15 59 32 75 40
17 7 32 15 35 18 10 12 248 123 365 171 66 28 129 54 140 59 59 24 129 50 136
50 4 0 18 4 31 9 13 5 28 10 33 11 6 2 39 14 75 27 36 14 85 31 110 39 25 9
52 18 60 21 8 4 17 7 20 7 3 1 25 9 50 18 290 106 289 106 374 143 19 8 36 15
39 15 8 0 130 56 242 111 182 89 311 167 379 230 47 42 87 124 90 185 9 170
-138 375 -396 553 -40 28 -79 51 -85 51 -6 0 -13 4 -15 9 -4 11 -160 90 -239
121 -79 32 -231 80 -252 80 -10 0 -26 4 -35 9 -9 5 -35 11 -57 15 -22 3 -51 8
-65 10 -260 48 -612 36 -887 -29 -13 -3 -31 -7 -40 -9 -10 -2 -45 -11 -78 -20
-33 -9 -67 -18 -75 -20 -21 -6 -191 -64 -215 -75 -11 -5 -60 -26 -110 -47
-101 -43 -292 -140 -316 -160 -8 -8 -19 -14 -23 -14 -4 0 -67 -40 -139 -88
-263 -175 -451 -343 -724 -648 -15 -17 -58 -65 -95 -105 -216 -239 -408 -514
-408 -585 0 -8 -6 -15 -12 -15 -16 -2 -12 -2 -73 5 -128 16 -230 20 -480 20
-274 0 -420 -7 -549 -28 -5 0 -20 26 -33 59 -31 74 -113 201 -207 320 -77 97
-86 108 -227 264 -52 57 -110 122 -129 145 -139 162 -382 379 -585 524 -75 53
-105 72 -113 72 -6 0 -12 4 -14 8 -8 20 -346 201 -453 242 -11 4 -37 16 -59
25 -58 26 -266 93 -343 111 -92 21 -105 24 -128 29 -101 20 -160 29 -285 40
-69 7 -288 14 -292 10z"/>
</g>
</svg>
